# xmcd CD database file
#
# Track frame offsets:
#	150
#	68253
#	86255
#	107140
#	126845
#
# Disc length: 1912 seconds
#
# Revision: 0
# Processed by: cddbd v1.5.2PL0 Copyright (c) Steve Scherf et al.
# Submitted via: CDex 1.51
#
DISCID=33077605
DTITLE=Wet Wet Wet - Extracts from High on the Happy Side
DYEAR=1991
DGENRE=90's
TTITLE0=Interview
TTITLE1=Put the Light on
TTITLE2=High on the Happy Side
TTITLE3=Maybe Tomorrow
TTITLE4=Goodnight Girl
EXTD=YEAR: 1991
EXTT0=
EXTT1=
EXTT2=
EXTT3=
EXTT4=
PLAYORDER=
